<svg width="25" height="25" fill="none" xmlns="http://www.w3.org/2000/svg"><path fill-rule="evenodd" clip-rule="evenodd" d="M11.5 4.5c-3.86599 0-7 3.13401-7 7 0 3.866 3.13401 7 7 7 3.866 0 7-3.134 7-7 0-3.86599-3.134-7-7-7Zm-9 7c0-4.97056 4.02944-9 9-9 4.9706 0 9 4.02944 9 9 0 4.9706-4.0294 9-9 9-4.97056 0-9-4.0294-9-9Z" fill="#fff"/><path fill-rule="evenodd" clip-rule="evenodd" d="M16.4428 16.4428c.3905-.3905 1.0237-.3905 1.4142 0l4.35 4.35c.3905.3905.3905 1.0237 0 1.4142-.3905.3905-1.0237.3905-1.4142 0l-4.35-4.35c-.3905-.3905-.3905-1.0237 0-1.4142Z" fill="#fff"/></svg>